<svg xmlns="http://www.w3.org/2000/svg" width="41" height="60" viewBox="0 0 41 60">
    <path fill="#525F78" fill-rule="nonzero" d="M39.704 48.614a.88.88 0 0 0-.881.88v8.263a.486.486 0 0 1-.486.485H33.6V40.934a.88.88 0 0 0-1.761 0v17.308h-9.535l2.765-3.035c.302-.332.444-.804.38-1.264 0-.006-.88-5.19-2.637-15.55l.71-1.066c.392.278.694.546 1.26.546.577 0 1.116-.322 1.381-.852l2.778-5.555 6.328 2.445c.229.098 3.553 1.592 3.553 5.536v12.516c.88 6.222.394-2.47.88-2.47.487 0 .881 7.798.881 7.313v-17.36c0-5.196-4.459-7.085-4.649-7.163l-10.548-4.076v-2.464a8.231 8.231 0 0 0 3.124-5.418 3.818 3.818 0 0 0 2.24-.911 3.721 3.721 0 0 0 .39-5.265v-3.256C31.14 4.887 26.243 0 20.224 0 14.204 0 9.307 4.887 9.307 10.893v3.341a3.525 3.525 0 0 0-.909 2.352c0 1.09.474 2.12 1.3 2.828a3.815 3.815 0 0 0 2.238.911 8.145 8.145 0 0 0 3.302 5.548v2.334l-10.52 4.07c-.206.084-4.666 1.973-4.666 7.17v18.31A2.248 2.248 0 0 0 2.301 60h14.21c.486 0 1.135-.394 1.135-.88 0-.485-.649-.878-1.135-.878H8.798V40.934a.88.88 0 0 0-1.762 0v17.308H2.301a.486.486 0 0 1-.487-.485v-18.31c0-3.958 3.347-5.448 3.552-5.536l6.323-2.445 2.778 5.555c.266.53.805.852 1.38.852.565 0 .864-.264 1.262-.546l.71 1.066-2.634 15.523c-.068.487.075.96.377 1.291l2.765 3.035h-3.523a.88.88 0 1 0 0 1.758h23.533a2.248 2.248 0 0 0 2.248-2.243v-8.264a.88.88 0 0 0-.881-.879zM27.292 30.828l-2.59 5.179c-.064-.046-1.436-1.019-3.114-2.207l3.199-3.94 2.505.968zm-5.207 5.48l-.671 1.01h-2.197l-.672-1.01 1.77-1.254 1.77 1.255zM17 28.492v-1.645c1.07.43 2.214.63 3.33.63a8.285 8.285 0 0 0 3.295-.685v1.707l-3.31 4.076L17 28.491zm13.288-11.904c0 .575-.25 1.12-.686 1.494a2.054 2.054 0 0 1-1.017.467v-3.923c1.012.164 1.703 1.002 1.703 1.962zm-18.425 1.961c-1.024-.165-1.703-1.01-1.703-1.962 0-.94.78-1.704 1.703-1.917v3.88zm.047-5.67c-.28.033-.602.108-.841.19v-2.175c0-5.037 4.106-9.135 9.155-9.135 5.048 0 9.155 4.098 9.155 9.135v2.114a3.924 3.924 0 0 0-.794-.153c0-.848.007-.684-2.773-3.667a1.57 1.57 0 0 0-2.001-.243c-3.07 2-6.813 3.005-10.267 2.757a1.566 1.566 0 0 0-1.634 1.177zm1.715 6.362V13.468c3.802.222 7.789-.905 11.01-2.963 1.275 1.366 1.965 2.083 2.188 2.356v6.38c0 3.567-2.916 6.477-6.492 6.477-4.016 0-6.706-3.109-6.706-6.478zm2.304 16.767l-2.59-5.179 2.5-.966 3.2 3.94-3.11 2.205z"/>
</svg>
