<svg xmlns="http://www.w3.org/2000/svg" width="38" height="44" viewBox="0 0 38 44">
    <g fill="none" fill-rule="nonzero">
        <path fill="#525F78" d="M37.951 11.33c-.023-1.189-.045-2.311-.045-3.397 0-.85-.709-1.54-1.583-1.54-6.77 0-11.924-1.893-16.22-5.957a1.614 1.614 0 0 0-2.207 0C13.6 4.5 8.446 6.393 1.677 6.393c-.874 0-1.583.69-1.583 1.54 0 1.086-.022 2.209-.045 3.397-.217 11.055-.514 26.196 18.432 32.585a1.622 1.622 0 0 0 1.036 0c18.948-6.39 18.651-21.53 18.434-32.586zM19 40.825C2.751 35.083 2.996 22.502 3.214 11.389c.013-.667.026-1.314.035-1.947 6.34-.26 11.41-2.13 15.75-5.809 4.34 3.679 9.412 5.548 15.752 5.809.01.633.022 1.28.035 1.946.218 11.113.463 23.694-15.787 29.438z"/>
        <path fill="#068ED9" d="M24.54 16.69l-7.618 7.377-3.25-3.148a1.615 1.615 0 0 0-2.232 0 1.495 1.495 0 0 0 0 2.162l4.366 4.228a1.6 1.6 0 0 0 1.116.448 1.6 1.6 0 0 0 1.116-.448l8.733-8.457a1.494 1.494 0 0 0 0-2.161 1.615 1.615 0 0 0-2.232 0z"/>
    </g>
</svg>
