<svg xmlns="http://www.w3.org/2000/svg" width="35" height="35" viewBox="0 0 35 35">
    <g fill="none" fill-rule="nonzero">
        <path fill="#032E68" d="M22.627 31.924c0 .567-.459 1.025-1.025 1.025h-8.204a1.025 1.025 0 0 1-1.025-1.025V25.77c0-.566.459-1.025 1.025-1.025h8.204c.566 0 1.025.459 1.025 1.025v6.153z"/>
        <g fill="#0A4EAF">
            <path d="M35 23.72a3.08 3.08 0 0 1-3.076 3.077H3.076A3.08 3.08 0 0 1 0 23.72V3.076A3.08 3.08 0 0 1 3.076 0h28.848A3.08 3.08 0 0 1 35 3.076v20.645zM26.729 33.975c0 .566-.46 1.025-1.026 1.025H9.297a1.025 1.025 0 0 1-1.026-1.025v-1.026a2.05 2.05 0 0 1 2.051-2.05h14.356a2.05 2.05 0 0 1 2.05 2.05v1.026z"/>
        </g>
        <path fill="#001D56" d="M21.602 24.746H17.5v8.203h4.102c.566 0 1.025-.458 1.025-1.025V25.77c0-.566-.459-1.025-1.025-1.025z"/>
        <g fill="#08469C">
            <path d="M31.924 0H17.5v26.797h14.424A3.08 3.08 0 0 0 35 23.72V3.076A3.08 3.08 0 0 0 31.924 0zM24.678 30.898H17.5V35h8.203c.567 0 1.026-.459 1.026-1.025v-1.026a2.05 2.05 0 0 0-2.051-2.05z"/>
        </g>
        <path fill="#E6EEFF" d="M3.076 24.746c-.566 0-1.025-.46-1.025-1.025V3.076c0-.566.46-1.025 1.025-1.025h28.848c.566 0 1.025.46 1.025 1.025v20.645c0 .565-.46 1.025-1.025 1.025H3.076z"/>
        <path fill="#DAE2F2" d="M31.924 2.05H17.5v22.696h14.424c.566 0 1.025-.46 1.025-1.025V3.076c0-.566-.46-1.025-1.025-1.025z"/>
        <path fill="#FCBF29" d="M28.134 4.847a10.53 10.53 0 0 0-10.46 1.55l-.174.139-.174-.14a10.524 10.524 0 0 0-10.46-1.55c-.39.157-.645.533-.645.953v13.82a1.027 1.027 0 0 0 1.406.952 8.466 8.466 0 0 1 8.417 1.248c.43.343.941.876 1.456.876.494 0 1.02-.527 1.456-.876a8.46 8.46 0 0 1 8.417-1.248 1.024 1.024 0 0 0 1.406-.952V5.8c0-.42-.255-.796-.645-.952z"/>
        <path fill="#FE9923" d="M18.956 21.82a8.46 8.46 0 0 1 8.417-1.249 1.024 1.024 0 0 0 1.406-.952V5.8c0-.42-.255-.796-.645-.952a10.53 10.53 0 0 0-10.46 1.55l-.174.139v16.16c.494 0 1.02-.528 1.456-.877z"/>
    </g>
</svg>
