<svg xmlns="http://www.w3.org/2000/svg" width="48" height="44" viewBox="0 0 48 44">
    <g fill="none" fill-rule="nonzero">
        <path fill="#525F78" d="M47.385 2.256A2.257 2.257 0 0 0 45.128 0H2.256A2.257 2.257 0 0 0 0 2.256v39.488A2.257 2.257 0 0 0 2.256 44h42.872a2.257 2.257 0 0 0 2.257-2.256V2.256zm-4.513.565a1.127 1.127 0 1 1 0 2.256 1.127 1.127 0 1 1 0-2.256zm-3.385 0a1.127 1.127 0 1 1 0 2.256 1.127 1.127 0 1 1 0-2.256zm-3.384 0a1.127 1.127 0 1 1 0 2.256 1.127 1.127 0 1 1 0-2.256zm9.025 38.923H2.256v-31.59h42.872v31.59z"/>
        <path fill="#068ED9" d="M32.212 25.872c0 4.596-3.74 8.334-8.335 8.334-4.596 0-8.336-3.738-8.336-8.334s3.74-8.336 8.336-8.336c1.703 0 3.326.512 4.7 1.456l-1.647.24.206 1.413 3.941-.576-.578-3.94-1.413.207.207 1.41a9.697 9.697 0 0 0-5.417-1.637c-5.384 0-9.764 4.38-9.764 9.763s4.38 9.763 9.764 9.763c5.383 0 9.764-4.38 9.764-9.763h-1.428zM21.37 19.679l-1.317.552 3.092 7.356 7.356-3.092-.553-1.317-6.04 2.54-2.538-6.04z"/>
    </g>
</svg>
